<svg width="122" height="71" viewBox="0 0 122 71" fill="none" xmlns="http://www.w3.org/2000/svg">
<g filter="url(#filter0_d_284_137)">
<path fill-rule="evenodd" clip-rule="evenodd" d="M44.0498 28.2587C44.6078 29.2075 44.205 30.4186 43.2417 30.9098C42.2785 31.4011 41.1207 30.9851 40.5456 30.0473C38.6492 26.955 35.914 24.4868 32.6617 22.9646C28.8163 21.1648 24.4861 20.7989 20.409 21.9291C16.3319 23.0594 12.7602 25.6159 10.3021 29.1631C7.84419 32.7102 6.6522 37.0286 6.92926 41.3823C7.20632 45.7362 8.9353 49.8558 11.8216 53.0397C14.708 56.2235 18.5729 58.2744 22.7582 58.8429C26.9434 59.4114 31.1899 58.4623 34.7739 56.1575C37.8054 54.208 40.2042 51.3907 41.6925 48.0683C42.1438 47.0607 43.2388 46.4916 44.256 46.8481C45.2732 47.2048 45.826 48.3509 45.393 49.367C43.6032 53.5676 40.6247 57.1303 36.8289 59.5713C32.4806 62.3676 27.3288 63.519 22.2513 62.8293C17.1739 62.1395 12.4848 59.6515 8.98314 55.7889C5.48149 51.9263 3.3839 46.9283 3.04775 41.6463C2.71162 36.3643 4.15775 31.1252 7.13974 26.8219C10.1217 22.5185 14.4551 19.4169 19.4014 18.0457C24.3478 16.6745 29.6011 17.1185 34.2662 19.3019C38.3386 21.208 41.7431 24.3367 44.0498 28.2587ZM59.3326 47.9329C58.9671 46.8889 59.5935 45.784 60.6317 45.4991C61.6698 45.2142 62.7252 45.8585 63.1096 46.8953C64.3775 50.3139 66.587 53.2921 69.4842 55.4486C72.9096 57.9982 77.0845 59.2414 81.2973 58.966C85.51 58.6908 89.5002 56.9142 92.5878 53.939C95.6754 50.9637 97.6695 46.974 98.2301 42.6495C98.7908 38.3251 97.8835 33.9333 95.6627 30.2229C93.442 26.5123 90.0451 23.7124 86.0511 22.3004C82.0572 20.8883 77.7129 20.9513 73.7589 22.4788C70.4147 23.7706 67.5244 26.0424 65.4304 28.9953C64.7954 29.8909 63.6133 30.2252 62.6842 29.6679C61.7551 29.1105 61.4324 27.8741 62.0511 26.9665C64.6086 23.2143 68.2095 20.3302 72.3971 18.7125C77.1942 16.8595 82.4646 16.783 87.3101 18.4961C92.1556 20.2092 96.2766 23.6059 98.9708 28.1076C101.665 32.6092 102.766 37.9371 102.086 43.1836C101.405 48.4301 98.9862 53.2704 95.2403 56.8799C91.4944 60.4894 86.6536 62.6449 81.5427 62.9788C76.4317 63.3127 71.3669 61.8046 67.2111 58.7114C63.5833 56.011 60.8442 52.2488 59.3326 47.9329Z" fill="#C7F35E"/>
</g>
<g filter="url(#filter1_d_284_137)">
<path fill-rule="evenodd" clip-rule="evenodd" d="M114.905 4.44777C115.008 3.44694 114.024 2.70616 113.134 3.11434L102.12 8.16607C101.23 8.57424 101.101 9.82531 101.888 10.4178L105.191 12.905C105.045 13.0206 104.912 13.1597 104.798 13.3213L102.108 17.1394C99.8329 14.8757 97.2369 12.9707 94.4019 11.4944C90.2348 9.32431 85.6546 8.13443 80.99 8.00996C76.3253 7.88563 71.6918 8.82984 67.422 10.7749C63.768 12.4392 60.4576 14.8015 57.6619 17.7309C56.8801 18.5502 56.9745 19.8715 57.8153 20.6258C58.6561 21.3801 59.9244 21.2809 60.7135 20.4693C63.1142 18.0002 65.9384 16.0047 69.0478 14.5882C72.7734 12.8912 76.8161 12.0674 80.886 12.1761C84.9559 12.2846 88.952 13.3228 92.588 15.2161C95.6227 16.7963 98.3435 18.9397 100.618 21.5335C101.365 22.3862 102.627 22.5528 103.504 21.8443C103.594 21.7716 103.677 21.6926 103.751 21.6083C103.853 21.5145 103.946 21.4081 104.03 21.2894L107.958 15.6963C108.071 15.5353 108.158 15.3629 108.219 15.1846L111.628 17.7511C112.415 18.3438 113.527 17.8335 113.63 16.8327L114.905 4.44777ZM58.5811 33.5381C59.1076 32.5656 60.2974 32.2186 61.2382 32.7629C62.1787 33.3072 62.5146 34.5362 61.9887 35.5085L48.5341 60.3839C48.0042 61.3637 46.7578 61.6316 45.8939 60.9514C45.0415 60.2121 44.8179 58.9509 45.3614 57.9473L58.5811 33.5381ZM56.5612 24.4884C55.6202 23.944 54.4304 24.291 53.9037 25.2636L45.2573 41.2287C44.7258 42.2098 44.9799 43.4461 45.8513 44.1194C46.7504 44.7671 47.994 44.4711 48.5287 43.4822L57.3119 27.2338C57.8376 26.2614 57.5016 25.0325 56.5612 24.4884Z" fill="#C7F35E"/>
</g>
<path fill-rule="evenodd" clip-rule="evenodd" d="M82.8345 29.1912C83.4946 28.955 83.8444 28.2104 83.6159 27.528C83.3873 26.8457 82.6669 26.4841 82.0068 26.7203C81.3466 26.9566 80.9968 27.7012 81.2254 28.3835C81.4539 29.0659 82.1743 29.4275 82.8345 29.1912ZM77.618 27.8593C77.6166 27.3591 77.2224 26.9505 76.7408 26.998C75.7952 27.0912 74.8669 27.331 73.9871 27.7105C72.8375 28.2066 71.7937 28.9318 70.9152 29.8449C70.0368 30.7578 69.3408 31.8409 68.8673 33.0318C68.5049 33.9432 68.2782 34.9041 68.1932 35.882C68.15 36.3801 68.5474 36.7853 69.0313 36.7839C69.5151 36.7826 69.9012 36.3746 69.9546 35.8776C70.034 35.1378 70.2131 34.4116 70.488 33.7203C70.874 32.7493 71.4414 31.8664 72.1576 31.122C72.8738 30.3775 73.7249 29.7863 74.6622 29.3818C75.3294 29.0939 76.0309 28.9047 76.7464 28.8186C77.2269 28.7606 77.6192 28.3594 77.618 27.8593ZM21.523 27.8768C21.5538 27.3776 21.1868 26.9429 20.7032 26.9572C19.7536 26.9853 18.8119 27.1606 17.9098 27.479C16.7308 27.895 15.6426 28.5469 14.7074 29.3976C13.7721 30.2483 13.0081 31.2811 12.4591 32.437C12.039 33.3213 11.751 34.2645 11.6032 35.2344C11.528 35.7285 11.8986 36.1601 12.3815 36.1919C12.8645 36.2238 13.2758 35.8433 13.3611 35.3511C13.4878 34.6182 13.7133 33.906 14.0319 33.2351C14.4796 32.2927 15.1024 31.4508 15.865 30.7572C16.6275 30.0637 17.5147 29.5321 18.4759 29.193C19.1602 28.9515 19.8723 28.811 20.5916 28.7741C21.0748 28.7494 21.4922 28.3759 21.523 27.8768ZM26.6423 29.5642C27.3161 29.3738 27.7131 28.6548 27.5289 27.9583C27.3447 27.2618 26.6491 26.8515 25.9753 27.0419C25.3014 27.2322 24.9045 27.9512 25.0887 28.6477C25.2728 29.3443 25.9684 29.7546 26.6423 29.5642Z" fill="#F6DF5B"/>
<defs>
<filter id="filter0_d_284_137" x="0" y="14.2647" width="109.282" height="55.7597" filterUnits="userSpaceOnUse" color-interpolation-filters="sRGB">
<feFlood flood-opacity="0" result="BackgroundImageFix"/>
<feColorMatrix in="SourceAlpha" type="matrix" values="0 0 0 0 0 0 0 0 0 0 0 0 0 0 0 0 0 0 127 0" result="hardAlpha"/>
<feOffset dx="2" dy="2"/>
<feGaussianBlur stdDeviation="2.5"/>
<feComposite in2="hardAlpha" operator="out"/>
<feColorMatrix type="matrix" values="0 0 0 0 0 0 0 0 0 0.215686 0 0 0 0 0.0509804 0 0 0 0.75 0"/>
<feBlend mode="normal" in2="BackgroundImageFix" result="effect1_dropShadow_284_137"/>
<feBlend mode="normal" in="SourceGraphic" in2="effect1_dropShadow_284_137" result="shape"/>
</filter>
<filter id="filter1_d_284_137" x="41.9807" y="0" width="79.9314" height="68.3291" filterUnits="userSpaceOnUse" color-interpolation-filters="sRGB">
<feFlood flood-opacity="0" result="BackgroundImageFix"/>
<feColorMatrix in="SourceAlpha" type="matrix" values="0 0 0 0 0 0 0 0 0 0 0 0 0 0 0 0 0 0 127 0" result="hardAlpha"/>
<feOffset dx="2" dy="2"/>
<feGaussianBlur stdDeviation="2.5"/>
<feComposite in2="hardAlpha" operator="out"/>
<feColorMatrix type="matrix" values="0 0 0 0 0 0 0 0 0 0.215686 0 0 0 0 0.0509804 0 0 0 0.75 0"/>
<feBlend mode="normal" in2="BackgroundImageFix" result="effect1_dropShadow_284_137"/>
<feBlend mode="normal" in="SourceGraphic" in2="effect1_dropShadow_284_137" result="shape"/>
</filter>
</defs>
</svg>
