<svg width="24" height="24" viewBox="0 0 24 24" fill="none" xmlns="http://www.w3.org/2000/svg">
<path d="M2.5 7C2.5 7.59095 2.6164 8.17611 2.84254 8.72208C3.06869 9.26804 3.40016 9.76412 3.81802 10.182C4.23588 10.5998 4.73196 10.9313 5.27792 11.1575C5.82389 11.3836 6.40905 11.5 7 11.5C7.59095 11.5 8.17611 11.3836 8.72208 11.1575C9.26804 10.9313 9.76412 10.5998 10.182 10.182C10.5998 9.76412 10.9313 9.26804 11.1575 8.72208C11.3836 8.17611 11.5 7.59095 11.5 7C11.5 5.80653 11.0259 4.66193 10.182 3.81802C9.33807 2.97411 8.19347 2.5 7 2.5C5.80653 2.5 4.66193 2.97411 3.81802 3.81802C2.97411 4.66193 2.5 5.80653 2.5 7ZM2.5 17C2.5 17.5909 2.6164 18.1761 2.84254 18.7221C3.06869 19.268 3.40016 19.7641 3.81802 20.182C4.23588 20.5998 4.73196 20.9313 5.27792 21.1575C5.82389 21.3836 6.40905 21.5 7 21.5C7.59095 21.5 8.17611 21.3836 8.72208 21.1575C9.26804 20.9313 9.76412 20.5998 10.182 20.182C10.5998 19.7641 10.9313 19.268 11.1575 18.7221C11.3836 18.1761 11.5 17.5909 11.5 17C11.5 15.8065 11.0259 14.6619 10.182 13.818C9.33807 12.9741 8.19347 12.5 7 12.5C5.80653 12.5 4.66193 12.9741 3.81802 13.818C2.97411 14.6619 2.5 15.8065 2.5 17ZM12.5 17C12.5 18.1935 12.9741 19.3381 13.818 20.182C14.6619 21.0259 15.8065 21.5 17 21.5C18.1935 21.5 19.3381 21.0259 20.182 20.182C21.0259 19.3381 21.5 18.1935 21.5 17C21.5 15.8065 21.0259 14.6619 20.182 13.818C19.3381 12.9741 18.1935 12.5 17 12.5C15.8065 12.5 14.6619 12.9741 13.818 13.818C12.9741 14.6619 12.5 15.8065 12.5 17ZM9.5 7C9.5 7.66304 9.23661 8.29893 8.76777 8.76777C8.29893 9.23661 7.66304 9.5 7 9.5C6.33696 9.5 5.70107 9.23661 5.23223 8.76777C4.76339 8.29893 4.5 7.66304 4.5 7C4.5 6.33696 4.76339 5.70107 5.23223 5.23223C5.70107 4.76339 6.33696 4.5 7 4.5C7.66304 4.5 8.29893 4.76339 8.76777 5.23223C9.23661 5.70107 9.5 6.33696 9.5 7ZM9.5 17C9.5 17.663 9.23661 18.2989 8.76777 18.7678C8.29893 19.2366 7.66304 19.5 7 19.5C6.33696 19.5 5.70107 19.2366 5.23223 18.7678C4.76339 18.2989 4.5 17.663 4.5 17C4.5 16.337 4.76339 15.7011 5.23223 15.2322C5.70107 14.7634 6.33696 14.5 7 14.5C7.66304 14.5 8.29893 14.7634 8.76777 15.2322C9.23661 15.7011 9.5 16.337 9.5 17ZM19.5 17C19.5 17.663 19.2366 18.2989 18.7678 18.7678C18.2989 19.2366 17.663 19.5 17 19.5C16.337 19.5 15.7011 19.2366 15.2322 18.7678C14.7634 18.2989 14.5 17.663 14.5 17C14.5 16.337 14.7634 15.7011 15.2322 15.2322C15.7011 14.7634 16.337 14.5 17 14.5C17.663 14.5 18.2989 14.7634 18.7678 15.2322C19.2366 15.7011 19.5 16.337 19.5 17ZM17.525 11.155L17.803 10.519C18.2885 9.3919 19.1792 8.48798 20.299 7.986L21.153 7.606C21.616 7.401 21.616 6.728 21.153 6.523L20.347 6.164C19.1978 5.64951 18.2907 4.71238 17.814 3.547L17.529 2.859C17.4866 2.75337 17.4136 2.66285 17.3193 2.5991C17.225 2.53534 17.1138 2.50127 17 2.50127C16.8862 2.50127 16.775 2.53534 16.6807 2.5991C16.5864 2.66285 16.5134 2.75337 16.471 2.859L16.186 3.547C15.7093 4.71238 14.8022 5.64951 13.653 6.164L12.847 6.523C12.384 6.728 12.384 7.401 12.847 7.606L13.701 7.986C14.8208 8.48798 15.7115 9.3919 16.197 10.519L16.475 11.155C16.5186 11.2582 16.5917 11.3462 16.6851 11.4081C16.7784 11.47 16.888 11.503 17 11.503C17.112 11.503 17.2216 11.47 17.3149 11.4081C17.4083 11.3462 17.4814 11.2582 17.525 11.155Z" fill="#F6DF5B"/>
</svg>
