<svg width="30" height="30" viewBox="0 0 30 30" fill="none" xmlns="http://www.w3.org/2000/svg">
<path d="M28.125 15C28.128 15.3845 28.0111 15.7604 27.7906 16.0755C27.57 16.3905 27.2568 16.629 26.8945 16.7578L19.4601 19.4613L16.7578 26.8945C16.6246 27.2534 16.3848 27.5628 16.0706 27.7814C15.7563 27.9999 15.3827 28.1171 15 28.1171C14.6172 28.1171 14.2437 27.9999 13.9294 27.7814C13.6152 27.5628 13.3754 27.2534 13.2422 26.8945L10.5398 19.4601L3.10546 16.7578C2.74663 16.6246 2.43716 16.3848 2.21861 16.0706C2.00007 15.7563 1.88293 15.3827 1.88293 15C1.88293 14.6172 2.00007 14.2437 2.21861 13.9294C2.43716 13.6152 2.74663 13.3754 3.10546 13.2422L10.5398 10.5398L13.2422 3.10546C13.3754 2.74663 13.6152 2.43716 13.9294 2.21861C14.2437 2.00007 14.6172 1.88293 15 1.88293C15.3827 1.88293 15.7563 2.00007 16.0706 2.21861C16.3848 2.43716 16.6246 2.74663 16.7578 3.10546L19.4613 10.5398L26.8945 13.2422C27.2568 13.371 27.57 13.6095 27.7906 13.9245C28.0111 14.2396 28.128 14.6155 28.125 15Z" fill="#F24822"/>
</svg>
