<svg width="30" height="30" viewBox="0 0 30 30" fill="none" xmlns="http://www.w3.org/2000/svg">
<path d="M15 6.875L14.325 7.525C14.4125 7.61573 14.5173 7.6879 14.6333 7.7372C14.7493 7.78649 14.874 7.8119 15 7.8119C15.126 7.8119 15.2507 7.78649 15.3667 7.7372C15.4827 7.6879 15.5875 7.61573 15.675 7.525L15 6.875ZM8.75125 20.525C8.55897 20.3669 8.31174 20.2916 8.06396 20.3157C7.81618 20.3399 7.58814 20.4615 7.43 20.6537C7.27186 20.846 7.19659 21.0933 7.22074 21.341C7.24488 21.5888 7.36647 21.8169 7.55875 21.975L8.75125 20.525ZM2.9275 16.7637C2.98659 16.8718 3.06639 16.9671 3.16232 17.0443C3.25825 17.1214 3.36844 17.179 3.4866 17.2135C3.60477 17.2481 3.72858 17.2591 3.85099 17.2458C3.97339 17.2326 4.09199 17.1953 4.2 17.1362C4.30801 17.0772 4.40333 16.9974 4.4805 16.9014C4.55768 16.8055 4.6152 16.6953 4.64979 16.5771C4.68438 16.459 4.69536 16.3352 4.6821 16.2128C4.66884 16.0904 4.63159 15.9718 4.5725 15.8637L2.9275 16.7637ZM3.4375 11.4212C3.4375 8.73375 4.95625 6.47875 7.03 5.53C9.045 4.60875 11.7525 4.8525 14.325 7.525L15.675 6.22625C12.625 3.055 9.08 2.53125 6.25 3.825C3.4825 5.09125 1.5625 8.03125 1.5625 11.4212H3.4375ZM10.6213 24.375C11.2625 24.88 11.95 25.4175 12.6462 25.825C13.3425 26.2325 14.1375 26.5625 15 26.5625V24.6875C14.6125 24.6875 14.1575 24.5375 13.5925 24.2062C13.0262 23.8762 12.44 23.4212 11.7825 22.9025L10.6213 24.375ZM19.3787 24.375C21.1613 22.9687 23.4412 21.3587 25.2288 19.345C27.05 17.295 28.4375 14.7537 28.4375 11.4212H26.5625C26.5625 14.1687 25.4375 16.285 23.8275 18.1C22.1838 19.95 20.1125 21.4087 18.2175 22.9025L19.3787 24.375ZM28.4375 11.4212C28.4375 8.03125 26.5187 5.09125 23.75 3.825C20.92 2.53125 17.3775 3.055 14.325 6.225L15.675 7.525C18.2475 4.85375 20.955 4.60875 22.97 5.53C25.0437 6.47875 26.5625 8.7325 26.5625 11.4212H28.4375ZM18.2175 22.9025C17.56 23.4212 16.9738 23.8762 16.4075 24.2062C15.8413 24.5362 15.3875 24.6875 15 24.6875V26.5625C15.8625 26.5625 16.6575 26.2312 17.3538 25.825C18.0513 25.4175 18.7375 24.88 19.3787 24.375L18.2175 22.9025ZM11.7825 22.9025C10.7875 22.1187 9.77625 21.3687 8.75125 20.525L7.55875 21.975C8.59625 22.8287 9.69375 23.6437 10.6213 24.375L11.7825 22.9025ZM4.5725 15.865C3.8194 14.5056 3.42855 12.9753 3.4375 11.4212H1.5625C1.5625 13.4687 2.0875 15.2275 2.9275 16.7637L4.5725 15.865Z" fill="#2C5D30"/>
</svg>
